<svg xmlns="http://www.w3.org/2000/svg" viewBox="0 0 50 50"><defs><style>.cls-1{fill:#c5c6ca;}.cls-2{fill:#f0f0f0;}</style></defs><g id="레이어_2" data-name="레이어 2"><g id="레이어_1-2" data-name="레이어 1"><path class="cls-1" d="M25,0h0A25,25,0,0,0,0,25H0A24.94,24.94,0,0,0,10.08,45.06,15,15,0,0,1,25,31.64h0A15,15,0,0,1,39.92,45.06,24.94,24.94,0,0,0,50,25h0A25,25,0,0,0,25,0Z"/><path class="cls-2" d="M25,31.64h0A15,15,0,0,0,10.08,45.06,24.92,24.92,0,0,0,25,50h0a24.92,24.92,0,0,0,14.92-4.94A15,15,0,0,0,25,31.64Z"/><rect class="cls-2" x="17.5" y="14.33" width="15" height="15" rx="7.5"/></g></g></svg>